<svg width="42" height="42" viewBox="0 0 42 42" fill="none" xmlns="http://www.w3.org/2000/svg">
<path d="M27 17.8088C27 22.126 23.192 25.6177 18.5 25.6177L17.446 26.8671L16.8227 27.6034C16.29 28.2281 15.27 28.0942 14.9187 27.3468L13.4 24.0559C11.3373 22.628 10 20.3635 10 17.8088C10 13.4917 13.808 10 18.5 10C21.9227 10 24.8807 11.863 26.2067 14.5403C26.7167 15.5331 27 16.6375 27 17.8088Z" stroke="#FF0F0F" stroke-width="2" stroke-linecap="round" stroke-linejoin="round"/>
<path d="M16 17.3108H21.3333M32 21.6724C32 24.2601 30.7413 26.5539 28.8 28.0002L27.3707 31.3336C27.04 32.0907 26.08 32.2376 25.5787 31.5935L24 29.5822C21.4187 29.5822 19.1147 28.3731 17.6747 26.4861L18.6667 25.2205C23.0827 25.2205 26.6667 21.6837 26.6667 17.3108C26.6667 16.1243 26.4 15.0057 25.92 14C29.408 14.8475 32 17.9662 32 21.6724Z" stroke="#FF0F0F" stroke-width="2" stroke-linecap="round" stroke-linejoin="round"/>
<rect x="1" y="1" width="40" height="40" rx="11" stroke="#FF0F0F" stroke-width="2"/>
</svg>
