<svg width="50" height="50" viewBox="0 0 50 50" fill="none" xmlns="http://www.w3.org/2000/svg">
<path d="M18.6071 15C12.7496 15 8 19.7017 8 25.5C8 31.2983 12.7496 36 18.6071 36C24.4646 36 29.2143 31.2983 29.2143 25.5C29.2143 24.7796 29.1347 24.0767 28.9963 23.4L28.9373 23.1667H18.6071V26.6667H25.6786C25.1158 29.9771 22.1104 32.5 18.6071 32.5C14.7002 32.5 11.5357 29.3675 11.5357 25.5C11.5357 21.6325 14.7002 18.5 18.6071 18.5C20.375 18.5 21.9867 19.1475 23.2271 20.2092L25.7611 17.7533C23.8754 16.0442 21.365 15 18.6071 15ZM35.1071 19.6667V23.1667H31.5714V25.5H35.1071V29H37.4643V25.5H41V23.1667H37.4643V19.6667H35.1071Z" fill="#FF5454"/>
<circle cx="25" cy="25" r="21.5" stroke="#FF5454" stroke-width="3"/>
</svg>
