<svg width="330" height="330" viewBox="0 0 330 330" fill="none" xmlns="http://www.w3.org/2000/svg">
<mask id="mask0_10_57" style="mask-type:alpha" maskUnits="userSpaceOnUse" x="0" y="0" width="330" height="330">
<circle cx="165" cy="165" r="165" fill="#D9D9D9"/>
</mask>
<g mask="url(#mask0_10_57)">
<path d="M80 332C80 307.147 100.147 287 125 287H202C226.853 287 247 307.147 247 332H80Z" fill="#F5D5A1"/>
<rect x="144" y="254" width="38" height="44" rx="8" fill="#A97067"/>
<path d="M240.195 202.208C240.195 250.087 204.733 267.913 158.869 267.913C113.005 267.913 74.1073 250.087 74.1073 202.208C74.1073 154.328 67.7193 100 153.501 100C252.058 100 240.195 154.328 240.195 202.208Z" fill="#C07D73"/>
<ellipse cx="179.426" cy="99.0164" rx="41.0656" ry="42.8907" fill="black"/>
<ellipse cx="56.5" cy="176.5" rx="56.5" ry="54.5" fill="black"/>
<ellipse cx="55.1401" cy="251.976" rx="58.4044" ry="44.7158" transform="rotate(13.3292 55.1401 251.976)" fill="black"/>
<ellipse cx="111.896" cy="111.792" rx="70.2678" ry="64.7924" fill="black"/>
<ellipse cx="237.831" cy="112.705" rx="31.9399" ry="34.6776" fill="black"/>
<ellipse cx="277.984" cy="172.022" rx="52.0164" ry="50.1913" fill="black"/>
<ellipse cx="272.508" cy="228.601" rx="52.0164" ry="50.1913" fill="black"/>
<ellipse cx="123.76" cy="228.601" rx="12.776" ry="6.38798" fill="#E98D92"/>
<ellipse cx="196.765" cy="228.601" rx="12.776" ry="6.38798" fill="#E98D92"/>
<rect x="187.639" y="202.137" width="10.9508" height="21.9016" rx="5.47541" transform="rotate(-90 187.639 202.137)" fill="#331818"/>
<rect x="120.109" y="185.71" width="10.9508" height="21.9016" rx="5.47541" fill="#331818"/>
<path d="M192 161C200.227 158.324 204.607 158.342 212 161" stroke="black" stroke-width="4" stroke-linecap="round"/>
<path d="M119 161C127.227 158.324 131.607 158.342 139 161" stroke="black" stroke-width="4" stroke-linecap="round"/>
<mask id="path-18-outside-1_10_57" maskUnits="userSpaceOnUse" x="154.945" y="208.995" width="11.062" height="12.0568" fill="black">
<rect fill="white" x="154.945" y="208.995" width="11.062" height="12.0568"/>
<path d="M156.083 214.918C156.079 214.115 156.15 213.408 156.294 212.799C156.448 212.202 156.671 211.696 156.965 211.281C157.267 210.866 157.639 210.554 158.082 210.345C158.525 210.137 159.034 210.031 159.61 210.028L164.432 210.003C164.604 210.002 164.732 210.059 164.815 210.173C164.906 210.299 164.952 210.476 164.953 210.706C164.955 210.935 164.91 211.108 164.82 211.223C164.739 211.35 164.612 211.413 164.439 211.414L159.667 211.439C158.762 211.444 158.085 211.74 157.636 212.328C157.195 212.915 156.978 213.777 156.984 214.913C156.99 216.05 157.216 216.903 157.663 217.475C158.118 218.046 158.798 218.33 159.702 218.325L164.475 218.301C164.647 218.3 164.775 218.362 164.858 218.488C164.949 218.614 164.995 218.791 164.996 219.021C164.998 219.239 164.953 219.406 164.863 219.521C164.782 219.647 164.655 219.711 164.482 219.712L159.66 219.737C158.896 219.741 158.245 219.561 157.709 219.196C157.173 218.843 156.767 218.306 156.492 217.584C156.225 216.863 156.089 215.974 156.083 214.918Z"/>
</mask>
<path d="M156.083 214.918C156.079 214.115 156.15 213.408 156.294 212.799C156.448 212.202 156.671 211.696 156.965 211.281C157.267 210.866 157.639 210.554 158.082 210.345C158.525 210.137 159.034 210.031 159.61 210.028L164.432 210.003C164.604 210.002 164.732 210.059 164.815 210.173C164.906 210.299 164.952 210.476 164.953 210.706C164.955 210.935 164.91 211.108 164.82 211.223C164.739 211.35 164.612 211.413 164.439 211.414L159.667 211.439C158.762 211.444 158.085 211.74 157.636 212.328C157.195 212.915 156.978 213.777 156.984 214.913C156.99 216.05 157.216 216.903 157.663 217.475C158.118 218.046 158.798 218.33 159.702 218.325L164.475 218.301C164.647 218.3 164.775 218.362 164.858 218.488C164.949 218.614 164.995 218.791 164.996 219.021C164.998 219.239 164.953 219.406 164.863 219.521C164.782 219.647 164.655 219.711 164.482 219.712L159.66 219.737C158.896 219.741 158.245 219.561 157.709 219.196C157.173 218.843 156.767 218.306 156.492 217.584C156.225 216.863 156.089 215.974 156.083 214.918Z" fill="#331818"/>
<path d="M156.294 212.799L155.326 212.551L155.324 212.56L155.322 212.568L156.294 212.799ZM156.965 211.281L156.156 210.692L156.149 210.703L156.965 211.281ZM158.082 210.345L157.656 209.441L157.656 209.441L158.082 210.345ZM164.815 210.173L165.625 209.586L165.625 209.586L164.815 210.173ZM164.82 211.223L164.032 210.608L164.004 210.644L163.98 210.682L164.82 211.223ZM157.636 212.328L156.842 211.72L156.836 211.727L157.636 212.328ZM157.663 217.475L156.875 218.091L156.881 218.098L157.663 217.475ZM164.858 218.488L164.023 219.038L164.035 219.056L164.048 219.074L164.858 218.488ZM164.863 219.521L164.075 218.906L164.047 218.942L164.023 218.979L164.863 219.521ZM157.709 219.196L158.271 218.369L158.265 218.365L158.259 218.361L157.709 219.196ZM156.492 217.584L155.554 217.931L155.557 217.94L156.492 217.584ZM157.083 214.913C157.08 214.168 157.145 213.544 157.267 213.031L155.322 212.568C155.154 213.273 155.079 214.061 155.083 214.923L157.083 214.913ZM157.263 213.048C157.392 212.544 157.571 212.155 157.781 211.859L156.149 210.703C155.771 211.236 155.503 211.86 155.326 212.551L157.263 213.048ZM157.773 211.87C157.981 211.584 158.225 211.384 158.509 211.25L157.656 209.441C157.054 209.725 156.552 210.149 156.157 210.692L157.773 211.87ZM158.509 211.25C158.799 211.113 159.16 211.03 159.615 211.028L159.605 209.028C158.909 209.031 158.252 209.16 157.656 209.441L158.509 211.25ZM159.615 211.028L164.437 211.003L164.427 209.003L159.605 209.028L159.615 211.028ZM164.437 211.003C164.414 211.003 164.343 210.999 164.251 210.958C164.152 210.914 164.066 210.844 164.005 210.759L165.625 209.586C165.31 209.151 164.841 209.001 164.427 209.003L164.437 211.003ZM164.005 210.759C163.966 210.705 163.953 210.662 163.95 210.652C163.948 210.643 163.953 210.66 163.953 210.711L165.953 210.701C165.952 210.357 165.884 209.945 165.625 209.586L164.005 210.759ZM163.953 210.711C163.954 210.763 163.948 210.775 163.953 210.758C163.957 210.74 163.976 210.68 164.032 210.608L165.609 211.838C165.896 211.47 165.955 211.034 165.953 210.701L163.953 210.711ZM163.98 210.682C164.03 210.604 164.109 210.525 164.215 210.472C164.316 210.422 164.399 210.415 164.434 210.414L164.444 212.414C164.897 212.412 165.367 212.221 165.661 211.764L163.98 210.682ZM164.434 210.414L159.661 210.439L159.672 212.439L164.444 212.414L164.434 210.414ZM159.661 210.439C158.524 210.445 157.521 210.831 156.842 211.72L158.431 212.935C158.65 212.648 159 212.443 159.672 212.439L159.661 210.439ZM156.836 211.727C156.21 212.562 155.977 213.676 155.984 214.919L157.984 214.908C157.978 213.878 158.18 213.269 158.436 212.928L156.836 211.727ZM155.984 214.919C155.99 216.159 156.234 217.271 156.875 218.091L158.451 216.859C158.198 216.536 157.989 215.94 157.984 214.908L155.984 214.919ZM156.881 218.098C157.572 218.966 158.577 219.331 159.707 219.325L159.697 217.325C159.019 217.329 158.664 217.127 158.445 216.852L156.881 218.098ZM159.707 219.325L164.48 219.3L164.47 217.301L159.697 217.325L159.707 219.325ZM164.48 219.3C164.445 219.301 164.362 219.294 164.261 219.245C164.154 219.193 164.074 219.115 164.023 219.038L165.693 217.938C165.395 217.485 164.923 217.298 164.47 217.301L164.48 219.3ZM164.048 219.074C164.009 219.02 163.996 218.977 163.993 218.967C163.991 218.958 163.996 218.975 163.996 219.026L165.996 219.016C165.995 218.672 165.927 218.26 165.668 217.901L164.048 219.074ZM163.996 219.026C163.997 219.069 163.992 219.074 163.998 219.052C164.004 219.029 164.023 218.972 164.075 218.906L165.652 220.136C165.933 219.775 165.998 219.352 165.996 219.016L163.996 219.026ZM164.023 218.979C164.073 218.902 164.152 218.823 164.258 218.77C164.359 218.719 164.442 218.712 164.477 218.712L164.487 220.712C164.94 220.71 165.41 220.519 165.704 220.062L164.023 218.979ZM164.477 218.712L159.655 218.737L159.665 220.737L164.487 220.712L164.477 218.712ZM159.655 218.737C159.056 218.74 158.612 218.601 158.271 218.369L157.147 220.023C157.878 220.521 158.736 220.742 159.665 220.737L159.655 218.737ZM158.259 218.361C157.931 218.145 157.642 217.794 157.426 217.228L155.557 217.94C155.892 218.818 156.414 219.541 157.159 220.032L158.259 218.361ZM157.43 217.238C157.215 216.658 157.088 215.892 157.083 214.913L155.083 214.923C155.089 216.055 155.235 217.068 155.554 217.931L157.43 217.238Z" fill="#331818" mask="url(#path-18-outside-1_10_57)"/>
<mask id="path-20-outside-2_10_57" maskUnits="userSpaceOnUse" x="154.886" y="217.7" width="11.062" height="12.0568" fill="black">
<rect fill="white" x="154.886" y="217.7" width="11.062" height="12.0568"/>
<path d="M156.025 223.623C156.021 222.82 156.091 222.113 156.236 221.504C156.389 220.907 156.613 220.401 156.907 219.986C157.209 219.571 157.581 219.259 158.024 219.05C158.467 218.841 158.976 218.736 159.552 218.733L164.374 218.708C164.546 218.707 164.674 218.763 164.757 218.878C164.848 219.004 164.894 219.181 164.895 219.411C164.896 219.64 164.852 219.813 164.762 219.928C164.681 220.055 164.554 220.118 164.381 220.119L159.608 220.144C158.704 220.149 158.027 220.445 157.578 221.032C157.137 221.62 156.92 222.482 156.925 223.618C156.931 224.754 157.158 225.608 157.605 226.18C158.06 226.751 158.74 227.035 159.644 227.03L164.417 227.005C164.589 227.005 164.717 227.067 164.8 227.193C164.891 227.319 164.937 227.496 164.938 227.726C164.939 227.944 164.895 228.11 164.805 228.226C164.724 228.352 164.597 228.416 164.424 228.417L159.602 228.442C158.837 228.446 158.187 228.266 157.651 227.901C157.114 227.548 156.709 227.011 156.434 226.289C156.167 225.568 156.031 224.679 156.025 223.623Z"/>
</mask>
<path d="M156.025 223.623C156.021 222.82 156.091 222.113 156.236 221.504C156.389 220.907 156.613 220.401 156.907 219.986C157.209 219.571 157.581 219.259 158.024 219.05C158.467 218.841 158.976 218.736 159.552 218.733L164.374 218.708C164.546 218.707 164.674 218.763 164.757 218.878C164.848 219.004 164.894 219.181 164.895 219.411C164.896 219.64 164.852 219.813 164.762 219.928C164.681 220.055 164.554 220.118 164.381 220.119L159.608 220.144C158.704 220.149 158.027 220.445 157.578 221.032C157.137 221.62 156.92 222.482 156.925 223.618C156.931 224.754 157.158 225.608 157.605 226.18C158.06 226.751 158.74 227.035 159.644 227.03L164.417 227.005C164.589 227.005 164.717 227.067 164.8 227.193C164.891 227.319 164.937 227.496 164.938 227.726C164.939 227.944 164.895 228.11 164.805 228.226C164.724 228.352 164.597 228.416 164.424 228.417L159.602 228.442C158.837 228.446 158.187 228.266 157.651 227.901C157.114 227.548 156.709 227.011 156.434 226.289C156.167 225.568 156.031 224.679 156.025 223.623Z" fill="#331818"/>
<path d="M156.236 221.504L155.268 221.256L155.265 221.264L155.263 221.273L156.236 221.504ZM156.907 219.986L156.098 219.397L156.091 219.408L156.907 219.986ZM158.024 219.05L157.598 218.146L157.598 218.146L158.024 219.05ZM164.757 218.878L165.567 218.291L165.567 218.291L164.757 218.878ZM164.762 219.928L163.974 219.313L163.946 219.349L163.921 219.387L164.762 219.928ZM157.578 221.032L156.784 220.425L156.778 220.432L157.578 221.032ZM157.605 226.18L156.817 226.796L156.822 226.803L157.605 226.18ZM164.8 227.193L163.965 227.743L163.977 227.761L163.99 227.779L164.8 227.193ZM164.805 228.226L164.017 227.611L163.989 227.646L163.964 227.684L164.805 228.226ZM157.651 227.901L158.213 227.074L158.207 227.07L158.2 227.066L157.651 227.901ZM156.434 226.289L155.496 226.636L155.499 226.645L156.434 226.289ZM157.025 223.618C157.021 222.873 157.087 222.249 157.209 221.736L155.263 221.273C155.096 221.978 155.021 222.766 155.025 223.628L157.025 223.618ZM157.205 221.752C157.334 221.249 157.513 220.86 157.723 220.564L156.091 219.408C155.713 219.941 155.445 220.565 155.268 221.256L157.205 221.752ZM157.715 220.575C157.923 220.289 158.167 220.089 158.451 219.955L157.598 218.146C156.996 218.43 156.494 218.853 156.098 219.397L157.715 220.575ZM158.451 219.955C158.741 219.818 159.102 219.735 159.557 219.733L159.547 217.733C158.851 217.736 158.193 217.865 157.598 218.146L158.451 219.955ZM159.557 219.733L164.379 219.708L164.368 217.708L159.547 217.733L159.557 219.733ZM164.379 219.708C164.356 219.708 164.285 219.704 164.193 219.663C164.094 219.619 164.008 219.548 163.947 219.464L165.567 218.291C165.252 217.856 164.783 217.705 164.368 217.708L164.379 219.708ZM163.947 219.464C163.907 219.41 163.894 219.367 163.892 219.357C163.89 219.348 163.895 219.364 163.895 219.416L165.895 219.406C165.893 219.062 165.826 218.65 165.567 218.291L163.947 219.464ZM163.895 219.416C163.895 219.468 163.89 219.48 163.894 219.463C163.899 219.445 163.918 219.385 163.974 219.313L165.551 220.543C165.838 220.174 165.897 219.739 165.895 219.406L163.895 219.416ZM163.921 219.387C163.972 219.309 164.051 219.23 164.157 219.177C164.258 219.127 164.341 219.119 164.376 219.119L164.386 221.119C164.839 221.117 165.309 220.926 165.603 220.469L163.921 219.387ZM164.376 219.119L159.603 219.144L159.614 221.144L164.386 221.119L164.376 219.119ZM159.603 219.144C158.466 219.15 157.463 219.536 156.784 220.425L158.373 221.64C158.592 221.353 158.942 221.147 159.614 221.144L159.603 219.144ZM156.778 220.432C156.152 221.267 155.919 222.381 155.925 223.623L157.925 223.613C157.92 222.583 158.122 221.973 158.378 221.633L156.778 220.432ZM155.925 223.623C155.932 224.864 156.176 225.976 156.817 226.796L158.392 225.564C158.14 225.241 157.931 224.645 157.925 223.613L155.925 223.623ZM156.822 226.803C157.514 227.671 158.519 228.036 159.649 228.03L159.639 226.03C158.96 226.034 158.606 225.832 158.387 225.557L156.822 226.803ZM159.649 228.03L164.422 228.005L164.411 226.005L159.639 226.03L159.649 228.03ZM164.422 228.005C164.387 228.006 164.304 227.999 164.203 227.95C164.096 227.898 164.016 227.82 163.965 227.743L165.635 226.643C165.336 226.189 164.864 226.003 164.411 226.005L164.422 228.005ZM163.99 227.779C163.95 227.725 163.938 227.682 163.935 227.672C163.933 227.663 163.938 227.68 163.938 227.731L165.938 227.721C165.936 227.377 165.869 226.965 165.61 226.606L163.99 227.779ZM163.938 227.731C163.938 227.774 163.934 227.778 163.939 227.757C163.946 227.734 163.965 227.677 164.017 227.611L165.594 228.841C165.875 228.48 165.94 228.057 165.938 227.721L163.938 227.731ZM163.964 227.684C164.015 227.607 164.094 227.528 164.2 227.475C164.301 227.424 164.384 227.417 164.419 227.417L164.429 229.417C164.882 229.415 165.352 229.224 165.646 228.767L163.964 227.684ZM164.419 227.417L159.597 227.442L159.607 229.442L164.429 229.417L164.419 227.417ZM159.597 227.442C158.997 227.445 158.554 227.306 158.213 227.074L157.089 228.728C157.82 229.226 158.677 229.447 159.607 229.442L159.597 227.442ZM158.2 227.066C157.873 226.85 157.584 226.499 157.368 225.933L155.499 226.645C155.834 227.522 156.356 228.246 157.101 228.736L158.2 227.066ZM157.372 225.942C157.157 225.363 157.03 224.597 157.025 223.618L155.025 223.628C155.031 224.76 155.176 225.773 155.496 226.636L157.372 225.942Z" fill="#331818" mask="url(#path-20-outside-2_10_57)"/>
<path d="M243.421 183.421C246.368 180.474 253 179 253 179C253 179 244.895 176.053 243.421 174.579C241.947 173.105 239 165 239 165C239 165 236.937 171.632 234.579 174.579C232.221 177.526 225 179 225 179C225 179 232.368 180.658 234.579 183.421C236.789 186.184 239 193 239 193C239 193 240.474 186.368 243.421 183.421Z" fill="#FFF6D8"/>
<path d="M249.237 203.237C250.395 202.079 253 201.5 253 201.5C253 201.5 250.395 200.921 249.237 199.763C248.079 198.605 247.5 196 247.5 196C247.5 196 246.921 198.316 245.763 199.763C244.605 201.211 242 201.5 242 201.5C242 201.5 244.605 201.789 245.763 203.237C246.921 204.684 247.5 207 247.5 207C247.5 207 248.079 204.395 249.237 203.237Z" fill="#FFF6D8"/>
</g>
</svg>
