<svg width="494" height="436" viewBox="0 0 494 436" fill="none" xmlns="http://www.w3.org/2000/svg">
<rect width="494" height="435" fill="#E87B6C" fill-opacity="0.5"/>
<path d="M142.398 435.167C142.398 402.102 169.202 375.298 202.266 375.298H304.708C337.772 375.298 364.576 402.102 364.576 435.167H142.398Z" fill="#F5D5A1"/>
<rect x="227.544" y="331.395" width="50.5556" height="58.538" rx="8" fill="#A97067"/>
<path d="M355.522 262.49C355.522 326.189 308.343 349.904 247.326 349.904C186.308 349.904 134.558 326.189 134.558 262.49C134.558 198.79 126.059 126.512 240.184 126.512C371.305 126.512 355.522 198.79 355.522 262.49Z" fill="#C07D73"/>
<ellipse cx="274.675" cy="125.203" rx="54.634" ry="57.0622" fill="black"/>
<ellipse cx="111.133" cy="228.288" rx="75.1681" ry="72.5073" fill="black"/>
<ellipse cx="109.324" cy="328.702" rx="77.7017" ry="59.4904" transform="rotate(13.3292 109.324 328.702)" fill="black"/>
<ellipse cx="184.833" cy="142.2" rx="93.4849" ry="86.2003" fill="black"/>
<ellipse cx="352.377" cy="143.414" rx="42.4931" ry="46.1354" fill="black"/>
<ellipse cx="405.797" cy="222.33" rx="69.2031" ry="66.7749" fill="black"/>
<ellipse cx="398.512" cy="297.604" rx="69.2031" ry="66.7749" fill="black"/>
<ellipse cx="200.616" cy="297.604" rx="16.9973" ry="8.49863" fill="#E98D92"/>
<ellipse cx="297.743" cy="297.604" rx="16.9973" ry="8.49863" fill="#E98D92"/>
<rect x="285.602" y="262.395" width="14.5691" height="29.1381" rx="6" transform="rotate(-90 285.602 262.395)" fill="#331818"/>
<rect x="195.759" y="240.542" width="14.5691" height="29.1381" rx="6" fill="#331818"/>
<path d="M291.404 207.667C302.349 204.107 308.176 204.131 318.012 207.667" stroke="black" stroke-width="4" stroke-linecap="round"/>
<path d="M194.284 207.667C205.229 204.107 211.056 204.131 220.892 207.667" stroke="black" stroke-width="4" stroke-linecap="round"/>
<path d="M243.416 276.457L243.416 276.457L243.414 276.465C243.21 277.323 243.114 278.304 243.12 279.402C243.127 280.845 243.313 282.089 243.694 283.12L243.694 283.12L243.696 283.125C244.091 284.162 244.688 284.969 245.504 285.507C246.315 286.057 247.282 286.317 248.381 286.311L254.796 286.278C255.159 286.276 255.493 286.133 255.709 285.813C255.913 285.54 255.979 285.197 255.978 284.856C255.976 284.497 255.905 284.147 255.705 283.865C255.487 283.54 255.147 283.398 254.781 283.4L248.432 283.433C247.342 283.438 246.601 283.103 246.114 282.492C245.617 281.856 245.325 280.849 245.317 279.391C245.31 277.934 245.591 276.914 246.084 276.255C246.567 275.625 247.304 275.277 248.389 275.271L254.739 275.238C255.102 275.236 255.436 275.093 255.652 274.773C255.859 274.496 255.922 274.143 255.92 273.793C255.919 273.431 255.847 273.077 255.641 272.793C255.415 272.481 255.074 272.358 254.724 272.36L248.309 272.393C247.483 272.398 246.731 272.55 246.066 272.864C245.397 273.179 244.837 273.65 244.388 274.266L244.388 274.266L244.384 274.272C243.952 274.883 243.632 275.615 243.416 276.457Z" fill="#331818" stroke="#331818"/>
<path d="M243.339 288.038L243.339 288.038L243.337 288.046C243.133 288.905 243.037 289.885 243.042 290.983C243.05 292.426 243.236 293.671 243.617 294.702L243.617 294.702L243.619 294.706C244.014 295.743 244.611 296.55 245.427 297.088C246.237 297.638 247.205 297.898 248.303 297.892L254.719 297.859C255.081 297.857 255.416 297.714 255.631 297.394C255.836 297.121 255.902 296.779 255.9 296.437C255.898 296.078 255.828 295.728 255.627 295.446C255.409 295.121 255.07 294.979 254.704 294.981L248.354 295.014C247.265 295.019 246.524 294.684 246.036 294.073C245.54 293.437 245.248 292.43 245.24 290.972C245.232 289.515 245.514 288.495 246.007 287.836C246.489 287.206 247.226 286.858 248.312 286.852L254.661 286.82C255.024 286.818 255.359 286.675 255.574 286.354C255.781 286.077 255.845 285.724 255.843 285.374C255.841 285.012 255.769 284.658 255.564 284.375C255.338 284.062 254.997 283.94 254.646 283.941L248.231 283.975C247.406 283.979 246.654 284.131 245.988 284.445C245.32 284.761 244.76 285.231 244.311 285.848L244.311 285.848L244.307 285.853C243.874 286.464 243.554 287.196 243.339 288.038Z" fill="#331818" stroke="#331818"/>
<path d="M359.815 237.496C363.736 233.575 372.558 231.614 372.558 231.614C372.558 231.614 361.775 227.693 359.815 225.732C357.854 223.772 353.933 212.988 353.933 212.988C353.933 212.988 351.188 221.811 348.051 225.732C344.914 229.653 335.307 231.614 335.307 231.614C335.307 231.614 345.11 233.82 348.051 237.496C350.992 241.172 353.933 250.24 353.933 250.24C353.933 250.24 355.893 241.417 359.815 237.496Z" fill="#FFF6D8"/>
<path d="M367.552 263.859C369.092 262.318 372.558 261.548 372.558 261.548C372.558 261.548 369.092 260.778 367.552 259.237C366.011 257.697 365.241 254.231 365.241 254.231C365.241 254.231 364.471 257.312 362.931 259.237C361.39 261.163 357.924 261.548 357.924 261.548C357.924 261.548 361.39 261.933 362.931 263.859C364.471 265.785 365.241 268.865 365.241 268.865C365.241 268.865 366.011 265.399 367.552 263.859Z" fill="#FFF6D8"/>
</svg>
