<svg width="42" height="42" viewBox="0 0 42 42" fill="none" xmlns="http://www.w3.org/2000/svg">
<path d="M27.25 33H15.75C12.3 33 10 31.2353 10 27.1176V18.8824C10 14.7647 12.3 13 15.75 13H27.25C30.7 13 33 14.7647 33 18.8824V27.1176C33 31.2353 30.7 33 27.25 33Z" stroke="#FF0F0F" stroke-width="2" stroke-miterlimit="10" stroke-linecap="round" stroke-linejoin="round"/>
<line x1="11" y1="19" x2="32" y2="19" stroke="#FF0F0F" stroke-width="2" stroke-linecap="round"/>
<mask id="path-3-inside-1_26_32" fill="white">
<path d="M27 13.5C27 12.0413 26.4205 10.6424 25.3891 9.61091C24.3576 8.57946 22.9587 8 21.5 8C20.0413 8 18.6424 8.57946 17.6109 9.61091C16.5795 10.6424 16 12.0413 16 13.5L21.5 13.5H27Z"/>
</mask>
<path d="M27 13.5C27 12.0413 26.4205 10.6424 25.3891 9.61091C24.3576 8.57946 22.9587 8 21.5 8C20.0413 8 18.6424 8.57946 17.6109 9.61091C16.5795 10.6424 16 12.0413 16 13.5L21.5 13.5H27Z" stroke="#FF0F0F" stroke-width="4" mask="url(#path-3-inside-1_26_32)"/>
<path d="M19 20V23H24V20" stroke="#FF0F0F" stroke-width="2" stroke-linecap="round" stroke-linejoin="round"/>
<rect x="1" y="1" width="40" height="40" rx="11" stroke="#FF0F0F" stroke-width="2"/>
</svg>
