<svg width="42" height="42" viewBox="0 0 42 42" fill="none" xmlns="http://www.w3.org/2000/svg">
<path d="M14 19H16C18 19 19 18 19 16V14C19 12 18 11 16 11H14C12 11 11 12 11 14V16C11 18 12 19 14 19ZM26 19H28C30 19 31 18 31 16V14C31 12 30 11 28 11H26C24 11 23 12 23 14V16C23 18 24 19 26 19ZM26 31H28C30 31 31 30 31 28V26C31 24 30 23 28 23H26C24 23 23 24 23 26V28C23 30 24 31 26 31ZM14 31H16C18 31 19 30 19 28V26C19 24 18 23 16 23H14C12 23 11 24 11 26V28C11 30 12 31 14 31Z" stroke="#FF0F0F" stroke-width="2" stroke-miterlimit="10" stroke-linecap="round" stroke-linejoin="round"/>
<rect x="1" y="1" width="40" height="40" rx="11" stroke="#FF0F0F" stroke-width="2"/>
</svg>
