<svg width="50" height="50" viewBox="0 0 50 50" fill="none" xmlns="http://www.w3.org/2000/svg">
<path d="M16 12C14.355 12 13 13.355 13 15C13 16.645 14.355 18 16 18C17.645 18 19 16.645 19 15C19 13.355 17.645 12 16 12ZM16 14C16.5641 14 17 14.4359 17 15C17 15.5641 16.5641 16 16 16C15.4359 16 15 15.5641 15 15C15 14.4359 15.4359 14 16 14ZM14 19C13.7348 19 13.4805 19.1054 13.2929 19.2929C13.1054 19.4805 13 19.7348 13 20V35C13 35.2652 13.1054 35.5195 13.2929 35.7071C13.4805 35.8946 13.7348 36 14 36H18C18.2652 36 18.5195 35.8946 18.7071 35.7071C18.8946 35.5195 19 35.2652 19 35V20C19 19.7348 18.8946 19.4805 18.7071 19.2929C18.5195 19.1054 18.2652 19 18 19H14ZM22 19C21.7348 19 21.4805 19.1054 21.2929 19.2929C21.1054 19.4805 21 19.7348 21 20V35C21 35.2652 21.1054 35.5195 21.2929 35.7071C21.4805 35.8946 21.7348 36 22 36H26C26.2652 36 26.5195 35.8946 26.7071 35.7071C26.8946 35.5195 27 35.2652 27 35V27.5C27 26.1205 28.1205 25 29.5 25C30.8795 25 32 26.1205 32 27.5V30V35C32 35.2652 32.1054 35.5195 32.2929 35.7071C32.4805 35.8946 32.7348 36 33 36H37C37.2652 36 37.5195 35.8946 37.7071 35.7071C37.8946 35.5195 38 35.2652 38 35V26.5C38 22.3696 34.6304 19 30.5 19C29.2135 19 28.0597 19.4162 27 19.9902C26.9974 19.7267 26.8909 19.4749 26.7036 19.2895C26.5164 19.104 26.2635 19 26 19H22ZM15 21H17V34H15V21ZM23 21H25V21.8164C25 22.0125 25.0577 22.2043 25.1659 22.3679C25.2741 22.5315 25.428 22.6597 25.6084 22.7365C25.7889 22.8133 25.988 22.8354 26.1809 22.7999C26.3738 22.7645 26.552 22.6731 26.6934 22.5371C27.6842 21.5853 29.0167 21 30.5 21C33.5496 21 36 23.4504 36 26.5V34H34V30V27.5C34 25.0295 31.9705 23 29.5 23C27.0295 23 25 25.0295 25 27.5V34H23V21Z" fill="#3C87F8"/>
<circle cx="25" cy="25" r="21.5" stroke="#3C87F8" stroke-width="3"/>
</svg>
