<svg width="42" height="42" viewBox="0 0 42 42" fill="none" xmlns="http://www.w3.org/2000/svg">
<path d="M19.05 11.53L13.03 15.46C11.1 16.72 11.1 19.54 13.03 20.8L19.05 24.73C20.13 25.44 21.91 25.44 22.99 24.73L28.98 20.8C30.9 19.54 30.9 16.73 28.98 15.47L22.99 11.54C21.91 10.82 20.13 10.82 19.05 11.53Z" stroke="#FF0F0F" stroke-width="2" stroke-linecap="round" stroke-linejoin="round"/>
<path d="M14.63 22.08L14.62 26.77C14.62 28.04 15.6 29.4 16.8 29.8L19.99 30.86C20.54 31.04 21.45 31.04 22.01 30.86L25.2 29.8C26.4 29.4 27.38 28.04 27.38 26.77V22.13M30.4 24V18" stroke="#FF0F0F" stroke-width="2" stroke-linecap="round" stroke-linejoin="round"/>
<rect x="1" y="1" width="40" height="40" rx="11" stroke="#FF0F0F" stroke-width="2"/>
</svg>
