<svg width="42" height="42" viewBox="0 0 42 42" fill="none" xmlns="http://www.w3.org/2000/svg">
<path d="M33.56 40.24C31.8 40.76 29.72 41 27.28 41H15.28C12.84 41 10.76 40.76 9 40.24C9.44 35.04 14.78 30.94 21.28 30.94C27.78 30.94 33.12 35.04 33.56 40.24Z" stroke="#FF0F0F" stroke-width="2" stroke-linecap="round" stroke-linejoin="round"/>
<path d="M21.16 25.34C17.2 25.34 14 22.12 14 18.16C14 14.2 17.2 11 21.16 11C25.12 11 28.32 14.2 28.32 18.16C28.32 22.12 25.12 25.34 21.16 25.34Z" stroke="#FF0F0F" stroke-width="2" stroke-linecap="round" stroke-linejoin="round"/>
<rect x="1" y="1" width="40" height="40" rx="11" stroke="#FF0F0F" stroke-width="2"/>
</svg>
