<svg width="90" height="90" viewBox="0 0 90 90" fill="none" xmlns="http://www.w3.org/2000/svg">
<rect width="90" height="90" rx="20" fill="#F5D5A1"/>
<mask id="mask0_28_56" style="mask-type:alpha" maskUnits="userSpaceOnUse" x="0" y="0" width="90" height="90">
<rect width="90" height="90" rx="20" fill="#E87B6C"/>
</mask>
<g mask="url(#mask0_28_56)">
<circle cx="27.5" cy="33.5" r="40.5" fill="#E87B6C"/>
</g>
<path d="M24.1754 63C23.1834 63 22.4154 62.728 21.8714 62.184C21.3274 61.608 21.0554 60.824 21.0554 59.832V32.136C21.0554 31.112 21.3114 30.344 21.8234 29.832C22.3674 29.288 23.1354 29.016 24.1274 29.016C25.1194 29.016 25.8714 29.288 26.3834 29.832C26.9274 30.344 27.1994 31.112 27.1994 32.136V57.768H41.1194C41.9834 57.768 42.6394 57.992 43.0874 58.44C43.5674 58.888 43.8074 59.528 43.8074 60.36C43.8074 61.192 43.5674 61.848 43.0874 62.328C42.6394 62.776 41.9834 63 41.1194 63H24.1754ZM55.4598 63.48C53.5078 63.48 51.8918 63.128 50.6118 62.424C49.3318 61.688 48.3718 60.6 47.7318 59.16C47.1238 57.72 46.8198 55.928 46.8198 53.784V42.168C46.8198 41.144 47.0758 40.392 47.5878 39.912C48.0998 39.4 48.8358 39.144 49.7958 39.144C50.7558 39.144 51.4918 39.4 52.0038 39.912C52.5478 40.392 52.8198 41.144 52.8198 42.168V53.88C52.8198 55.544 53.1558 56.776 53.8278 57.576C54.4998 58.376 55.5718 58.776 57.0438 58.776C58.6438 58.776 59.9558 58.232 60.9798 57.144C62.0038 56.024 62.5158 54.552 62.5158 52.728V42.168C62.5158 41.144 62.7718 40.392 63.2838 39.912C63.7958 39.4 64.5318 39.144 65.4918 39.144C66.4518 39.144 67.1878 39.4 67.6998 39.912C68.2438 40.392 68.5157 41.144 68.5157 42.168V60.312C68.5157 62.36 67.5398 63.384 65.5878 63.384C64.6598 63.384 63.9398 63.128 63.4278 62.616C62.9158 62.072 62.6598 61.304 62.6598 60.312V56.664L63.3318 58.104C62.6598 59.832 61.6358 61.16 60.2598 62.088C58.9158 63.016 57.3158 63.48 55.4598 63.48Z" fill="white"/>
</svg>
